<?xml version="1.0" encoding="UTF-8" standalone="no"?>
<svg
   xmlns:dc="http://purl.org/dc/elements/1.1/"
   xmlns:cc="http://creativecommons.org/ns#"
   xmlns:rdf="http://www.w3.org/1999/02/22-rdf-syntax-ns#"
   xmlns:svg="http://www.w3.org/2000/svg"
   xmlns="http://www.w3.org/2000/svg"
   xmlns:sodipodi="http://sodipodi.sourceforge.net/DTD/sodipodi-0.dtd"
   xmlns:inkscape="http://www.inkscape.org/namespaces/inkscape"
   version="1.1"
   x="0px"
   y="0px"
   viewBox="0 0 759.07166 754.35602"
   xml:space="preserve"
   id="svg110"
   sodipodi:docname="noun_Delete_1813392.svg"
   width="759.07166"
   height="754.35602"
   inkscape:version="0.92.5 (2060ec1f9f, 2020-04-08)"><metadata
     id="metadata116"><rdf:RDF><cc:Work
         rdf:about=""><dc:format>image/svg+xml</dc:format><dc:type
           rdf:resource="http://purl.org/dc/dcmitype/StillImage" /></cc:Work></rdf:RDF></metadata><defs
     id="defs114" /><sodipodi:namedview
     pagecolor="#ffffff"
     bordercolor="#666666"
     borderopacity="1"
     objecttolerance="10"
     gridtolerance="10"
     guidetolerance="10"
     inkscape:pageopacity="0"
     inkscape:pageshadow="2"
     inkscape:window-width="1920"
     inkscape:window-height="1016"
     id="namedview112"
     showgrid="false"
     inkscape:zoom="0.6546875"
     inkscape:cx="379.53582"
     inkscape:cy="432.39356"
     inkscape:window-x="0"
     inkscape:window-y="27"
     inkscape:window-maximized="1"
     inkscape:current-layer="svg110" /><path
     d="m 759.03582,174.156 c -1,-21.7 -17.6,-39.9 -40,-39.9 h -157.3 c 0.2,-2 0.3,-23.6 0.3,-25.5 0,-2.6 -0.1,-5.1 -0.4,-7.7 -2.1,-26.7 -13.7,-52.8 -33.4,-71.1 -20.6,-19.1 -47.1,-29.7 -75.3,-29.9 -19,-0.2 -38.1,0.2 -57.1,0.2 h -79 c -10.7,0 -20.6,0.2 -31.3,1.9 -29.1,4.6 -53.3,22.9 -70.1,46.2 -14.1,19.6 -17.8,62.8 -18.5,85.8 h -127.7 c -9.3,0 -18.7,-0.2 -28,-0.1 -0.4,0 -0.8,-0.1 -1.2,-0.1 -20.9,0 -41.00000013,18.5 -40.00000013,40.1 1.00000003,21.7 17.60000013,40.1 40.00000013,40.1 h 34.5 v 440.9 c 0,3.5 -0.1,6.9 0,10.4 0.2,25.1 10.9,50.2 30.1,66.6 17,14.5 37.7,22.2 60.1,22.3 4.8,0 9.5,-0.2 14.3,-0.2 h 374 c 14.2,0 28.3,0.2 42.5,0.2 22.7,-0.1 44.3,-8.3 61,-23.7 18.1,-16.6 28,-40.9 28.1,-65.3 0.1,-12 0,-23.9 0,-35.8 v -415.3 h 5.3 c 9.3,0 18.7,0 28,-0.1 0.4,0 0.8,-0.1 1.2,-0.1 20.8,0 40.9,-18.3 39.9,-39.9 z m -486.5,380.4 c 0,16.8 -13.8,29.3 -30,30 -16.2,0.7 -30,-14.3 -30,-30 v -200.5 c 0,-16.8 13.8,-29.3 30,-30 16.2,-0.7 30,14.3 30,30 z m 138,38.3 c 0,16.8 -13.8,29.3 -30,30 -16.2,0.7 -30,-14.3 -30,-30 v -277.1 c 0,-16.8 13.8,-29.3 30,-30 16.2,-0.7 30,14.3 30,30 z m 72,-484.8 c 0,0.3 0,0.5 0,0.8 v 25.7 c 0,-0.1 0,-0.2 0,-0.2 h -206 c 0,-3 0.1,-25.4 0.3,-28.1 -0.3,1.2 -0.5,22.4 -0.7,23.6 0.1,-0.8 0.2,-21.5 0.3,-22.3 0,-0.3 0.1,-0.6 0.1,-0.9 0,-0.2 0,-0.5 0,-0.7 0.1,-0.5 0,-1 0,-1.5 v 0 c 0,-0.7 0.1,-1.3 0.2,-2 h 0.1 c 0,-0.1 0,-0.3 0,-0.4 -0.1,0 -0.2,0 -0.3,0 v 0 c 0,0 0,0 0,0 0,0 0,-0.1 0,-0.1 v 0 c 0.1,0 0.2,0 0.3,0 0,0 0,0 0,-0.1 0,0 0,0 0,0.1 0.1,-0.4 0.2,-0.8 0.3,-1.2 0,0.4 0,0.6 0,1 0,0 0,-0.1 0,-0.1 0,0 0,-0.1 0.1,-0.2 1,-2.4 2,-4.8 3,-7.1 0,0 0,0 0,0 0,0 0.1,0 0.1,0.1 0,0 0.3,-0.1 0.3,-0.1 v 0 c 0,0 -0.1,0 -0.1,-0.1 0,-0.1 0.1,-0.2 0.1,-0.3 1.5,-1.9 3,-3.8 4.5,-5.8 -0.4,0.3 -0.8,0.6 -1.2,0.9 0.4,-0.3 0.9,-0.7 1.3,-1 0.3,-0.5 0.7,-0.9 1,-1.4 -0.3,0.4 -0.6,0.9 -1,1.3 2,-1.5 3.9,-3 5.9,-4.5 -0.3,0.1 -0.7,0.3 -1,0.4 0.4,-0.2 0.7,-0.3 1.1,-0.5 0.2,-0.2 0.5,-0.4 0.7,-0.5 -0.2,0.2 -0.4,0.3 -0.6,0.5 2.1,-0.9 4.2,-1.8 6.3,-2.6 -0.4,0 -0.8,0.1 -1.2,0.1 0.5,-0.1 0.9,-0.1 1.4,-0.2 0.7,-0.3 1.3,-0.6 2,-0.8 -0.6,0.3 -1.2,0.5 -1.8,0.8 3,-0.4 6,-1 9.1,-1.4 -2.1,0.3 -4.1,0.7 -6.1,1.2 5.8,-0.4 11.6,-0.1 17.3,-0.1 h 119.3 c 6.8,0 13.7,-0.4 20.5,0 -1.8,-0.4 -3.7,-0.8 -5.6,-1 3,0.4 6,0.9 9,1.3 -0.6,-0.3 -1.2,-0.5 -1.8,-0.8 0.6,0.3 1.3,0.5 1.9,0.8 0.5,0.1 1,0.1 1.5,0.2 -0.5,-0.1 -0.9,-0.1 -1.4,-0.2 2.2,0.9 4.3,1.8 6.5,2.8 -0.3,-0.2 -0.5,-0.4 -0.7,-0.6 0.3,0.2 0.6,0.4 0.8,0.7 0.3,0.1 0.7,0.3 1,0.4 -0.3,-0.1 -0.6,-0.2 -0.9,-0.3 1.9,1.5 3.8,3 5.7,4.5 -0.3,-0.4 -0.6,-0.9 -1,-1.3 0.3,0.5 0.7,0.9 1,1.4 0.4,0.3 0.9,0.7 1.3,1 -0.4,-0.3 -0.8,-0.6 -1.2,-0.9 1.5,1.9 3,3.9 4.5,5.8 -0.1,-0.3 -0.3,-0.7 -0.4,-1 0.2,0.4 0.3,0.7 0.5,1.1 0.2,0.2 0.4,0.5 0.5,0.7 -0.2,-0.2 -0.3,-0.4 -0.5,-0.6 1,2.3 1.9,4.6 2.9,6.9 -0.1,-0.6 -0.1,-1.3 -0.2,-1.9 0.1,0.7 0.2,1.3 0.3,2 0.2,0.5 0.4,0.9 0.6,1.4 -0.2,-0.4 -0.4,-0.9 -0.6,-1.3 0.3,2.2 0.6,4.3 0.9,6.5 0.1,0.7 0.2,21.4 0.3,22.1 -0.3,-0.9 -0.4,-21.5 -0.5,-22 z m 66,446.5 c 0,16.8 -13.8,29.3 -30,30 -16.2,0.7 -30,-14.3 -30,-30 v -200.5 c 0,-16.8 13.8,-29.3 30,-30 16.2,-0.7 30,14.3 30,30 z m -271.5,-452.3 c 0,0 0,0 0,0 z m 0,0 c 0,0 0,-0.2 0,-0.2 0,0 -0.1,-0.1 -0.1,-0.2 0,0 0,0 0,0.1 -0.1,0 0,0.3 0.1,0.3 z"
     id="path104"
     inkscape:connector-curvature="0" /></svg>