<?xml version="1.0" encoding="UTF-8" standalone="no"?>
<svg
   xmlns:dc="http://purl.org/dc/elements/1.1/"
   xmlns:cc="http://creativecommons.org/ns#"
   xmlns:rdf="http://www.w3.org/1999/02/22-rdf-syntax-ns#"
   xmlns:svg="http://www.w3.org/2000/svg"
   xmlns="http://www.w3.org/2000/svg"
   xmlns:sodipodi="http://sodipodi.sourceforge.net/DTD/sodipodi-0.dtd"
   xmlns:inkscape="http://www.inkscape.org/namespaces/inkscape"
   version="1.1"
   x="0px"
   y="0px"
   viewBox="0 0 861.51599 861.58887"
   xml:space="preserve"
   id="svg281"
   sodipodi:docname="noun_edit_1768423.svg"
   width="861.51599"
   height="861.58887"
   inkscape:version="0.92.5 (2060ec1f9f, 2020-04-08)"><metadata
     id="metadata287"><rdf:RDF><cc:Work
         rdf:about=""><dc:format>image/svg+xml</dc:format><dc:type
           rdf:resource="http://purl.org/dc/dcmitype/StillImage" /></cc:Work></rdf:RDF></metadata><defs
     id="defs285" /><sodipodi:namedview
     pagecolor="#ffffff"
     bordercolor="#666666"
     borderopacity="1"
     objecttolerance="10"
     gridtolerance="10"
     guidetolerance="10"
     inkscape:pageopacity="0"
     inkscape:pageshadow="2"
     inkscape:window-width="1920"
     inkscape:window-height="1016"
     id="namedview283"
     showgrid="false"
     inkscape:zoom="0.44775581"
     inkscape:cx="505.56213"
     inkscape:cy="365.16629"
     inkscape:window-x="0"
     inkscape:window-y="27"
     inkscape:window-maximized="1"
     inkscape:current-layer="svg281" /><g
     id="g275"
     transform="translate(-81.1,-81.555556)"><g
       id="g265"><g
         id="g263"><path
           d="m 862.8,468.6 c 0,34.1 0,68.1 0,102.2 0,51.6 0,103.1 0,154.7 0,16 0.7,32.3 -1.4,48.2 0.5,-3.5 1,-7.1 1.4,-10.6 -1.8,12.9 -5.3,25.4 -10.3,37.5 1.3,-3.2 2.7,-6.4 4,-9.6 -5.2,12.1 -11.8,23.5 -19.8,33.9 2.1,-2.7 4.2,-5.4 6.3,-8.1 -7.8,10 -16.7,18.9 -26.7,26.7 2.7,-2.1 5.4,-4.2 8.1,-6.3 -10.4,8 -21.8,14.7 -33.9,19.8 3.2,-1.3 6.4,-2.7 9.6,-4 -12,5 -24.6,8.4 -37.5,10.3 3.5,-0.5 7.1,-1 10.6,-1.4 -20.7,2.8 -42.3,1.4 -63.1,1.4 -39.2,0 -78.4,0 -117.6,0 -48.1,0 -96.2,0 -144.3,0 -41,0 -82,0 -123.1,0 -17.9,0 -35.8,0.1 -53.6,0 -7,0 -13.9,-0.5 -20.8,-1.4 3.5,0.5 7.1,1 10.6,1.4 -12.9,-1.8 -25.4,-5.3 -37.5,-10.3 3.2,1.3 6.4,2.7 9.6,4 -12.1,-5.2 -23.5,-11.8 -33.9,-19.8 2.7,2.1 5.4,4.2 8.1,6.3 -10,-7.8 -18.9,-16.7 -26.7,-26.7 2.1,2.7 4.2,5.4 6.3,8.1 -8,-10.4 -14.7,-21.8 -19.8,-33.9 1.3,3.2 2.7,6.4 4,9.6 -5,-12 -8.4,-24.6 -10.3,-37.5 0.5,3.5 1,7.1 1.4,10.6 -2.8,-20.7 -1.4,-42.3 -1.4,-63.1 0,-39.2 0,-78.4 0,-117.6 0,-48.1 0,-96.2 0,-144.3 0,-41 0,-82 0,-123.1 0,-17.9 -0.1,-35.8 0,-53.6 0,-7 0.5,-13.9 1.4,-20.8 -0.5,3.5 -1,7.1 -1.4,10.6 1.8,-12.9 5.3,-25.4 10.3,-37.5 -1.3,3.2 -2.7,6.4 -4,9.6 5.2,-12.1 11.8,-23.5 19.8,-33.9 -2.1,2.7 -4.2,5.4 -6.3,8.1 7.8,-10 16.7,-18.9 26.7,-26.7 -2.7,2.1 -5.4,4.2 -8.1,6.3 10.4,-8 21.8,-14.7 33.9,-19.8 -3.2,1.3 -6.4,2.7 -9.6,4 12,-5 24.6,-8.4 37.5,-10.3 -3.5,0.5 -7.1,1 -10.6,1.4 13.9,-1.9 28,-1.4 42,-1.4 22.2,0 44.5,0 66.7,0 53,0 106,0 159,0 12.5,0 24.9,0 37.4,0 20.9,0 41,-18.4 40,-40 -1,-21.7 -17.6,-40 -40,-40 -23.6,0 -47.2,0 -70.8,0 -44.6,0 -89.2,0 -133.9,0 -26.4,0 -52.8,-0.1 -79.2,0 -69.7,0.2 -137.4,39.6 -169.2,102.3 -14,27.6 -21.5,57.6 -21.6,88.6 0,5.9 0,11.8 0,17.8 0,30.6 0,61.2 0,91.7 0,44.1 0,88.2 0,132.3 0,43.9 0,87.8 0,131.7 0,30 0,60 0,90 0,5.5 0,11 0,16.4 0.1,32.5 8.4,64.5 24,93 33.1,60.1 98.5,97.5 166.8,97.7 18.4,0.1 36.7,0 55.1,0 38.9,0 77.8,0 116.7,0 45.7,0 91.5,0 137.2,0 38.8,0 77.6,0 116.4,0 18.2,0 36.3,0 54.5,0 68.6,-0.2 134.6,-38.1 167.4,-98.8 15.3,-28.3 23.4,-59.9 23.4,-92.1 0,-8.9 0,-17.8 0,-26.8 0,-40.7 0,-81.5 0,-122.2 0,-38.6 0,-77.3 0,-115.9 0,-6.3 0,-12.5 0,-18.8 0,-20.9 -18.4,-41 -40,-40 -21.5,1.1 -39.8,17.7 -39.8,40.1 z"
           id="path261"
           inkscape:connector-curvature="0" /></g></g><g
       id="g273"><g
         id="g271"><g
           id="g269"><path
             d="m 865,210.7 c -11.7,11.7 -23.3,23.3 -35,35 -27.9,27.9 -55.7,55.7 -83.6,83.6 -33.8,33.8 -67.6,67.6 -101.4,101.4 -29.1,29.1 -58.2,58.2 -87.3,87.3 -14.1,14.1 -28.6,28 -42.5,42.5 -0.2,0.2 -0.4,0.4 -0.6,0.6 9.4,-3.9 18.9,-7.8 28.3,-11.7 -32.9,2 -65.9,4 -98.8,6 -4.7,0.3 -9.4,0.6 -14.1,0.9 13.3,13.3 26.7,26.7 40,40 1.5,-33.5 2.9,-67 4.4,-100.6 0.2,-4.7 0.4,-9.5 0.6,-14.2 -3.9,9.4 -7.8,18.9 -11.7,28.3 11.7,-11.7 23.4,-23.4 35.2,-35.2 28.1,-28.1 56.2,-56.2 84.3,-84.3 33.8,-33.8 67.6,-67.6 101.4,-101.4 29.1,-29.1 58.2,-58.2 87.3,-87.3 13.9,-13.9 27.7,-27.9 41.7,-41.7 1.2,-1.2 2.4,-2.2 3.7,-3.3 -2.7,2.1 -5.4,4.2 -8.1,6.3 2.3,-1.7 4.6,-3 7.2,-4.2 -3.2,1.3 -6.4,2.7 -9.6,4 2.6,-1 5.1,-1.7 7.8,-2.1 -3.5,0.5 -7.1,1 -10.6,1.4 2.7,-0.3 5.3,-0.4 8,-0.1 -3.5,-0.5 -7.1,-1 -10.6,-1.4 3.2,0.4 6.1,1.2 9,2.5 -3.2,-1.3 -6.4,-2.7 -9.6,-4 2.1,1 4,2.1 5.9,3.5 -2.7,-2.1 -5.4,-4.2 -8.1,-6.3 8.9,7 16.5,16.1 24.5,24 11.8,11.8 23.7,23.7 35.5,35.5 3.4,3.4 7,6.7 10,10.4 -2.1,-2.7 -4.2,-5.4 -6.3,-8.1 1.3,1.9 2.5,3.8 3.5,5.9 -1.3,-3.2 -2.7,-6.4 -4,-9.6 1.2,2.9 2,5.9 2.5,9 -0.5,-3.5 -1,-7.1 -1.4,-10.6 0.3,2.7 0.2,5.3 -0.1,8 0.5,-3.5 1,-7.1 1.4,-10.6 -0.4,2.7 -1.1,5.3 -2.1,7.8 1.3,-3.2 2.7,-6.4 4,-9.6 -1.1,2.6 -2.5,4.9 -4.2,7.2 2.1,-2.7 4.2,-5.4 6.3,-8.1 -0.8,1.2 -1.8,2.2 -2.8,3.3 -7.2,7.5 -11.7,17.8 -11.7,28.3 0,9.8 4.4,21.5 11.7,28.3 15.7,14.4 41.1,16.1 56.6,0 17.7,-18.5 25.1,-44.2 18.8,-69.1 -3.2,-12.9 -10.7,-24.2 -20,-33.5 -10.4,-10.4 -20.9,-20.9 -31.3,-31.3 -9.9,-9.9 -19.8,-19.9 -29.8,-29.8 -9.9,-9.8 -22.9,-18.1 -36.9,-20.2 -12.3,-1.8 -24.5,-2.4 -36.5,2 -11.1,4.1 -20.2,9.3 -28.8,17.6 -7.5,7.2 -14.8,14.8 -22.1,22.1 -18.2,18.2 -36.4,36.4 -54.6,54.6 C 656,204 631.5,228.5 607,253 c -25.9,25.9 -51.7,51.7 -77.6,77.6 -22.8,22.8 -45.6,45.6 -68.4,68.4 -14.8,14.8 -29.7,29.7 -44.5,44.5 -3,3 -6.1,6 -9.1,9.1 -8,8.2 -11.6,18.1 -12.3,29.4 -0.2,3.8 -0.3,7.6 -0.5,11.4 -1.4,31.8 -2.8,63.6 -4.2,95.4 -0.1,2.5 -0.2,5 -0.3,7.5 -0.9,20.7 19.1,41.3 40,40 20.5,-1.3 40.9,-2.5 61.4,-3.8 13,-0.8 26.1,-1.6 39.1,-2.4 3.5,-0.2 7,-0.4 10.5,-0.6 11.5,-0.7 21.6,-3.6 30.2,-11.9 18.4,-17.6 36.1,-36.1 54.1,-54.1 38.4,-38.4 76.9,-76.9 115.3,-115.3 39.3,-39.3 78.6,-78.6 117.9,-117.9 20.7,-20.7 41.6,-41.1 62,-62 0.3,-0.3 0.6,-0.6 0.9,-0.9 14.8,-14.8 15.9,-42 0,-56.6 C 905.6,196 880.8,194.9 865,210.7 Z"
             id="path267"
             inkscape:connector-curvature="0" /></g></g></g></g></svg>